<?xml version="1.0" encoding="utf-8"?>
<!-- Generator: Adobe Illustrator 22.0.1, SVG Export Plug-In . SVG Version: 6.00 Build 0)  -->
<svg version="1.1" id="Layer_1" xmlns="http://www.w3.org/2000/svg" xmlns:xlink="http://www.w3.org/1999/xlink" x="0px" y="0px"
	 viewBox="0 0 81.5 30.5" style="enable-background:new 0 0 81.5 30.5;" xml:space="preserve">
<style type="text/css">
	.st0{fill:#FFFFFF;}
</style>
<g>
	<g>
		<path class="st0" d="M7.6,29.5c11.8-5.3,23.6-10.7,35.3-16c-1.7,0-3.4,0-5,0c12,5.3,24,10.7,36,16c5.8,2.6,10.9-6,5-8.6
			C72.6,18,66.3,15.2,60,12.4c-4-1.8-8.1-3.6-12.1-5.4c-2-0.9-4.6-2.5-6.8-2.8c-2.4-0.3-5.4,1.6-7.6,2.6c-4,1.8-8,3.6-11.9,5.4
			c-6.3,2.9-12.7,5.7-19,8.6C-3.3,23.5,1.8,32.1,7.6,29.5L7.6,29.5z"/>
	</g>
</g>
</svg>
