<?xml version="1.0" encoding="utf-8"?>
<!-- Generator: Adobe Illustrator 22.0.1, SVG Export Plug-In . SVG Version: 6.00 Build 0)  -->
<svg version="1.1" id="Layer_1" xmlns="http://www.w3.org/2000/svg" xmlns:xlink="http://www.w3.org/1999/xlink" x="0px" y="0px"
	 viewBox="0 0 81.5 30.5" style="enable-background:new 0 0 81.5 30.5;" xml:space="preserve">
<style type="text/css">
	.st0{fill:#FFFFFF;}
</style>
<g>
	<g>
		<path class="st0" d="M74.3,4.8c-11.8,5.3-23.6,10.7-35.3,16c1.7,0,3.4,0,5,0c-12-5.3-24-10.7-36-16c-5.8-2.6-10.9,6-5,8.6
			c6.3,2.8,12.6,5.6,18.9,8.4c4,1.8,8.1,3.6,12.1,5.4c2,0.9,4.6,2.5,6.8,2.8c2.4,0.3,5.4-1.6,7.6-2.6c4-1.8,8-3.6,11.9-5.4
			c6.3-2.9,12.7-5.7,19-8.6C85.2,10.8,80.1,2.2,74.3,4.8L74.3,4.8z"/>
	</g>
</g>
</svg>
