<?xml version="1.0" encoding="utf-8"?>
<!-- Generator: Adobe Illustrator 16.0.0, SVG Export Plug-In . SVG Version: 6.00 Build 0)  -->
<!DOCTYPE svg PUBLIC "-//W3C//DTD SVG 1.1//EN" "http://www.w3.org/Graphics/SVG/1.1/DTD/svg11.dtd">
<svg version="1.1" id="Layer_1" xmlns="http://www.w3.org/2000/svg" xmlns:xlink="http://www.w3.org/1999/xlink" x="0px" y="0px"
	 width="168.806px" height="168.806px" viewBox="0 0 168.806 168.806" enable-background="new 0 0 168.806 168.806"
	 xml:space="preserve">
<rect fill="#F16D90" width="168.806" height="168.806"/>
<path fill="#FFFFFF" d="M58.478,85.386c0,12.005-9.738,21.741-21.743,21.741c-12.018,0-21.754-9.736-21.754-21.741
	c0-12.02,9.736-21.763,21.754-21.763C48.74,63.624,58.478,73.366,58.478,85.386z"/>
<path fill="#FFFFFF" d="M106.6,85.386c0,12.005-9.74,21.741-21.752,21.741c-12.018,0-21.747-9.736-21.747-21.741
	c0-12.02,9.729-21.763,21.747-21.763C96.86,63.624,106.6,73.366,106.6,85.386z"/>
<path fill="#FFFFFF" d="M153.825,85.386c0,12.005-9.738,21.741-21.752,21.741c-12.016,0-21.749-9.736-21.749-21.741
	c0-12.02,9.733-21.763,21.749-21.763C144.086,63.624,153.825,73.366,153.825,85.386z"/>
<g>
	<g>
		<path fill="#FFFFFF" d="M55.935,42.094c0,14.836,0,29.672,0,44.508c0,1.612,2.5,1.612,2.5,0c0-14.836,0-29.672,0-44.508
			C58.435,40.482,55.935,40.482,55.935,42.094L55.935,42.094z"/>
	</g>
</g>
<g>
	<g>
		<path fill="#FFFFFF" d="M63.058,42.017c0,14.778,0,29.555,0,44.333c0,1.612,2.5,1.612,2.5,0c0-14.778,0-29.555,0-44.333
			C65.558,40.405,63.058,40.405,63.058,42.017L63.058,42.017z"/>
	</g>
</g>
<g>
	<g>
		<path fill="#FFFFFF" d="M151.314,42.017c0,15.073,0,30.146,0,45.219c0,1.612,2.5,1.612,2.5,0c0-15.073,0-30.146,0-45.219
			C153.814,40.405,151.314,40.405,151.314,42.017L151.314,42.017z"/>
	</g>
</g>
<g>
	<g>
		<path fill="#FFFFFF" d="M58.822,123.576c-2.182,0-3.615-1.616-3.615-3.673c0-2.058,1.433-3.674,3.615-3.674
			c0.998,0,2.045,0.479,2.639,1.396h0.03v-5.514h1.015v11.291h-1.015v-1.178h-0.03C60.867,123.104,59.82,123.576,58.822,123.576z
			 M58.927,122.714c1.568,0,2.687-1.208,2.687-2.811c0-1.594-1.119-2.822-2.687-2.822c-1.688,0-2.641,1.271-2.641,2.822
			C56.286,121.458,57.239,122.714,58.927,122.714z"/>
		<path fill="#FFFFFF" d="M69.64,118.888c0-1.206-0.66-1.807-1.87-1.807c-0.819,0-1.583,0.329-2.075,0.823l-0.568-0.671
			c0.568-0.57,1.552-1.004,2.75-1.004c1.509,0,2.718,0.838,2.718,2.546v3.055c0,0.544,0.048,1.185,0.12,1.572h-0.913
			c-0.061-0.342-0.106-0.76-0.106-1.134h-0.024c-0.64,0.923-1.422,1.309-2.539,1.309c-1.065,0-2.421-0.562-2.421-2.119
			c0-2.149,2.371-2.336,4.93-2.336V118.888z M69.344,119.903c-1.662,0-3.586,0.185-3.586,1.509c0,1.008,0.849,1.335,1.64,1.335
			c1.435,0,2.243-1.078,2.243-2.317v-0.527H69.344z"/>
		<path fill="#FFFFFF" d="M74.122,116.417c0.035,0.366,0.059,0.893,0.059,1.191h0.03c0.392-0.814,1.407-1.378,2.391-1.378
			c1.777,0,2.654,1.159,2.654,2.892v4.281h-1.013v-3.872c0-1.459-0.435-2.45-1.896-2.45c-1.073,0-2.121,0.871-2.121,2.735v3.586
			h-1.015v-5.45c0-0.373-0.015-1.061-0.059-1.535H74.122z"/>
		<path fill="#FFFFFF" d="M82.41,114.443c-0.355,0-0.717-0.303-0.717-0.721c0-0.414,0.362-0.712,0.717-0.712
			c0.361,0,0.723,0.298,0.723,0.712C83.132,114.141,82.771,114.443,82.41,114.443z M82.923,123.402h-1.015v-6.985h1.015V123.402z"/>
	</g>
	<g>
		<path fill="#FFFFFF" d="M90.405,122.224v1.178h-1.015v-11.291h1.015v5.514h0.033c0.599-0.917,1.642-1.396,2.642-1.396
			c2.18,0,3.617,1.616,3.617,3.674c0,2.058-1.437,3.673-3.617,3.673c-1,0-2.042-0.473-2.642-1.352H90.405z M92.977,117.081
			c-1.568,0-2.687,1.228-2.687,2.822c0,1.603,1.119,2.811,2.687,2.811c1.686,0,2.639-1.256,2.639-2.811
			C95.616,118.352,94.663,117.081,92.977,117.081z"/>
		<path fill="#FFFFFF" d="M101.287,122.315h0.024l2.167-5.899h1.106l-3.482,8.791c-0.416,1.071-0.986,1.777-2.195,1.777
			c-0.294,0-0.614-0.03-0.908-0.087l0.104-0.93c0.22,0.081,0.475,0.124,0.745,0.124c0.686,0,1.043-0.451,1.344-1.239l0.57-1.463
			l-2.992-6.973h1.137L101.287,122.315z"/>
	</g>
	<g>
		<path fill="#FFFFFF" d="M113.011,123.576c-2.184,0-3.613-1.616-3.613-3.673c0-2.058,1.429-3.674,3.613-3.674
			c0.997,0,2.047,0.479,2.644,1.396h0.028v-5.514h1.013v11.291h-1.013v-1.178h-0.028
			C115.058,123.104,114.008,123.576,113.011,123.576z M113.117,122.714c1.563,0,2.688-1.208,2.688-2.811
			c0-1.594-1.124-2.822-2.688-2.822c-1.692,0-2.646,1.271-2.646,2.822C110.472,121.458,111.425,122.714,113.117,122.714z"/>
		<path fill="#FFFFFF" d="M125.765,120.177h-5.794c0.037,1.398,1.124,2.537,2.556,2.537c1.045,0,1.851-0.582,2.241-1.208
			l0.758,0.594c-0.818,1.045-1.849,1.477-2.999,1.477c-2.075,0-3.612-1.565-3.612-3.673s1.537-3.674,3.521-3.674
			c2.197,0,3.343,1.553,3.343,3.467C125.778,119.829,125.778,119.999,125.765,120.177z M124.754,119.367
			c-0.063-1.307-0.869-2.287-2.319-2.287c-1.352,0-2.356,1.1-2.445,2.287H124.754z"/>
		<path fill="#FFFFFF" d="M131.681,118.071c-0.294-0.583-0.938-0.991-1.712-0.991c-0.733,0-1.48,0.313-1.48,1.1
			c0,0.653,0.522,0.947,1.67,1.187c1.645,0.348,2.424,0.96,2.424,2.044c0,1.603-1.35,2.165-2.63,2.165
			c-1.059,0-2.121-0.414-2.763-1.352l0.808-0.597c0.359,0.605,1.119,1.086,1.942,1.086c0.865,0,1.644-0.312,1.644-1.224
			c0-0.729-0.734-1.032-2.062-1.348c-0.825-0.189-2.008-0.549-2.008-1.879c0-1.42,1.23-2.034,2.502-2.034
			c0.971,0,2.001,0.468,2.45,1.259L131.681,118.071z"/>
		<path fill="#FFFFFF" d="M135.124,114.443c-0.359,0-0.723-0.303-0.723-0.721c0-0.414,0.364-0.712,0.723-0.712
			c0.359,0,0.714,0.298,0.714,0.712C135.838,114.141,135.483,114.443,135.124,114.443z M135.635,123.402h-1.023v-6.985h1.023
			V123.402z"/>
		<path fill="#FFFFFF" d="M138.71,124.804c0.549,0.719,1.612,1.287,2.672,1.287c1.999,0,2.735-1.239,2.735-2.748v-1.313h-0.031
			c-0.542,0.86-1.629,1.372-2.641,1.372c-2.187,0-3.617-1.507-3.617-3.554c0-1.99,1.431-3.619,3.617-3.619
			c1.012,0,2.086,0.499,2.641,1.396h0.031v-1.208h1.01v6.927c0,1.522-0.699,3.641-3.789,3.641c-1.289,0-2.539-0.54-3.364-1.404
			L138.71,124.804z M141.547,122.533c1.57,0,2.683-1.102,2.683-2.718c0-1.463-1.113-2.735-2.683-2.735
			c-1.688,0-2.648,1.271-2.648,2.735S139.86,122.533,141.547,122.533z"/>
		<path fill="#FFFFFF" d="M148.692,116.417c0.026,0.366,0.055,0.893,0.055,1.191h0.033c0.385-0.814,1.402-1.378,2.387-1.378
			c1.781,0,2.659,1.159,2.659,2.892v4.281h-1.015v-3.872c0-1.459-0.431-2.45-1.897-2.45c-1.071,0-2.121,0.871-2.121,2.735v3.586
			h-1.015v-5.45c0-0.373-0.015-1.061-0.059-1.535H148.692z"/>
	</g>
</g>
</svg>
