<?xml version="1.0" encoding="utf-8"?>
<!-- Generator: Adobe Illustrator 16.0.0, SVG Export Plug-In . SVG Version: 6.00 Build 0)  -->
<!DOCTYPE svg PUBLIC "-//W3C//DTD SVG 1.1//EN" "http://www.w3.org/Graphics/SVG/1.1/DTD/svg11.dtd">
<svg version="1.1" id="Layer_1" xmlns="http://www.w3.org/2000/svg" xmlns:xlink="http://www.w3.org/1999/xlink" x="0px" y="0px"
	 width="144.571px" height="89.102px" viewBox="0 0 144.571 89.102" enable-background="new 0 0 144.571 89.102"
	 xml:space="preserve">
<path fill="#FFFFFF" d="M46.224,47.164c0,11.816-9.585,21.399-21.402,21.399c-11.83,0-21.413-9.583-21.413-21.399
	c0-11.831,9.583-21.42,21.413-21.42C36.639,25.743,46.224,35.333,46.224,47.164z"/>
<path fill="#FFFFFF" d="M93.59,47.164c0,11.816-9.586,21.399-21.41,21.399c-11.829,0-21.406-9.583-21.406-21.399
	c0-11.831,9.577-21.42,21.406-21.42C84.004,25.743,93.59,35.333,93.59,47.164z"/>
<path fill="#FFFFFF" d="M140.075,47.164c0,11.816-9.584,21.399-21.41,21.399s-21.411-9.583-21.411-21.399
	c0-11.831,9.585-21.42,21.411-21.42S140.075,35.333,140.075,47.164z"/>
<line fill="none" stroke="#FFFFFF" stroke-width="2" stroke-miterlimit="10" x1="45.197" y1="4.282" x2="45.197" y2="50.33"/>
<line fill="none" stroke="#FFFFFF" stroke-width="2" stroke-miterlimit="10" x1="51.685" y1="4.504" x2="51.685" y2="48.142"/>
<line fill="none" stroke="#FFFFFF" stroke-width="2" stroke-miterlimit="10" x1="138.988" y1="4.504" x2="138.988" y2="49.015"/>
<g>
	<g>
		<path fill="#FFFFFF" d="M46.562,84.755c-2.147,0-3.557-1.591-3.557-3.616c0-2.027,1.41-3.616,3.557-3.616
			c0.982,0,2.012,0.473,2.598,1.375h0.031v-5.427h0.997v11.113h-0.997v-1.16H49.16C48.574,84.289,47.544,84.755,46.562,84.755z
			 M46.665,83.906c1.544,0,2.646-1.188,2.646-2.767c0-1.569-1.102-2.777-2.646-2.777c-1.661,0-2.599,1.251-2.599,2.777
			C44.065,82.668,45.004,83.906,46.665,83.906z"/>
		<path fill="#FFFFFF" d="M57.211,80.141c0-1.189-0.649-1.779-1.842-1.779c-0.805,0-1.557,0.321-2.042,0.808l-0.558-0.658
			c0.558-0.563,1.527-0.99,2.707-0.99c1.485,0,2.674,0.826,2.674,2.505v3.008c0,0.536,0.047,1.167,0.118,1.549H57.37
			c-0.06-0.337-0.105-0.75-0.105-1.117h-0.022c-0.631,0.908-1.399,1.288-2.499,1.288c-1.049,0-2.384-0.553-2.384-2.086
			c0-2.116,2.334-2.301,4.853-2.301V80.141z M56.919,81.139c-1.636,0-3.529,0.183-3.529,1.484c0,0.994,0.834,1.315,1.613,1.315
			c1.412,0,2.208-1.061,2.208-2.282v-0.517H56.919z"/>
		<path fill="#FFFFFF" d="M61.623,77.708c0.033,0.359,0.057,0.878,0.057,1.17h0.03c0.386-0.801,1.385-1.356,2.354-1.356
			c1.749,0,2.611,1.139,2.611,2.845v4.217h-0.996v-3.812c0-1.435-0.429-2.41-1.868-2.41c-1.056,0-2.086,0.857-2.086,2.691v3.531
			h-0.998v-5.365c0-0.367-0.016-1.045-0.058-1.51H61.623z"/>
		<path fill="#FFFFFF" d="M69.78,75.766c-0.349,0-0.706-0.3-0.706-0.71c0-0.407,0.357-0.701,0.706-0.701
			c0.355,0,0.711,0.294,0.711,0.701C70.492,75.466,70.136,75.766,69.78,75.766z M70.286,84.584h-0.998v-6.875h0.998V84.584z"/>
	</g>
	<g>
		<path fill="#FFFFFF" d="M77.649,83.424v1.16h-0.998V73.471h0.998v5.427h0.032c0.593-0.903,1.615-1.375,2.602-1.375
			c2.145,0,3.559,1.589,3.559,3.616c0,2.025-1.414,3.616-3.559,3.616c-0.986,0-2.009-0.466-2.602-1.331H77.649z M80.181,78.362
			c-1.542,0-2.644,1.208-2.644,2.777c0,1.579,1.102,2.767,2.644,2.767c1.661,0,2.599-1.237,2.599-2.767
			C82.78,79.613,81.841,78.362,80.181,78.362z"/>
		<path fill="#FFFFFF" d="M88.361,83.512h0.022l2.135-5.804h1.09l-3.429,8.652c-0.409,1.055-0.97,1.749-2.161,1.749
			c-0.289,0-0.603-0.029-0.892-0.085l0.101-0.916c0.214,0.08,0.466,0.123,0.733,0.123c0.676,0,1.026-0.444,1.324-1.222l0.559-1.438
			l-2.943-6.862h1.117L88.361,83.512z"/>
	</g>
	<g>
		<path fill="#FFFFFF" d="M99.901,84.755c-2.149,0-3.557-1.591-3.557-3.616c0-2.027,1.408-3.616,3.557-3.616
			c0.98,0,2.014,0.473,2.604,1.375h0.026v-5.427h0.996v11.113h-0.996v-1.16h-0.026C101.916,84.289,100.882,84.755,99.901,84.755z
			 M100.006,83.906c1.54,0,2.644-1.188,2.644-2.767c0-1.569-1.104-2.777-2.644-2.777c-1.664,0-2.604,1.251-2.604,2.777
			C97.402,82.668,98.342,83.906,100.006,83.906z"/>
		<path fill="#FFFFFF" d="M112.453,81.407h-5.7c0.035,1.377,1.103,2.499,2.515,2.499c1.029,0,1.822-0.572,2.205-1.188l0.745,0.583
			c-0.804,1.028-1.816,1.454-2.949,1.454c-2.043,0-3.554-1.543-3.554-3.616c0-2.075,1.511-3.616,3.463-3.616
			c2.162,0,3.293,1.528,3.293,3.413C112.47,81.064,112.47,81.233,112.453,81.407z M111.462,80.612
			c-0.064-1.286-0.857-2.25-2.286-2.25c-1.331,0-2.316,1.082-2.408,2.25H111.462z"/>
		<path fill="#FFFFFF" d="M118.279,79.337c-0.289-0.576-0.923-0.975-1.685-0.975c-0.723,0-1.456,0.308-1.456,1.082
			c0,0.643,0.513,0.933,1.644,1.168c1.619,0.343,2.384,0.945,2.384,2.011c0,1.579-1.328,2.132-2.588,2.132
			c-1.045,0-2.089-0.407-2.721-1.331l0.796-0.589c0.354,0.597,1.101,1.071,1.91,1.071c0.852,0,1.62-0.308,1.62-1.205
			c0-0.718-0.723-1.015-2.03-1.326c-0.812-0.187-1.974-0.54-1.974-1.851c0-1.397,1.21-2.001,2.459-2.001
			c0.959,0,1.972,0.461,2.414,1.239L118.279,79.337z"/>
		<path fill="#FFFFFF" d="M121.667,75.766c-0.354,0-0.713-0.3-0.713-0.71c0-0.407,0.359-0.701,0.713-0.701s0.703,0.294,0.703,0.701
			C122.37,75.466,122.021,75.766,121.667,75.766z M122.171,84.584h-1.007v-6.875h1.007V84.584z"/>
		<path fill="#FFFFFF" d="M125.198,85.963c0.542,0.707,1.586,1.267,2.63,1.267c1.967,0,2.692-1.222,2.692-2.706v-1.294h-0.03
			c-0.535,0.849-1.604,1.353-2.6,1.353c-2.151,0-3.561-1.484-3.561-3.499c0-1.961,1.41-3.563,3.561-3.563
			c0.996,0,2.054,0.491,2.6,1.375h0.03v-1.189h0.994v6.816c0,1.498-0.688,3.584-3.729,3.584c-1.27,0-2.502-0.533-3.311-1.382
			L125.198,85.963z M127.989,83.727c1.549,0,2.641-1.085,2.641-2.673c0-1.44-1.092-2.691-2.641-2.691
			c-1.661,0-2.604,1.251-2.604,2.691C125.386,82.492,126.329,83.727,127.989,83.727z"/>
		<path fill="#FFFFFF" d="M135.024,77.708c0.027,0.359,0.053,0.878,0.053,1.17h0.032c0.38-0.801,1.382-1.356,2.349-1.356
			c1.754,0,2.617,1.139,2.617,2.845v4.217h-1v-3.812c0-1.435-0.426-2.41-1.866-2.41c-1.056,0-2.086,0.857-2.086,2.691v3.531h-1
			v-5.365c0-0.367-0.017-1.045-0.059-1.51H135.024z"/>
	</g>
</g>
</svg>
